<svg xmlns="http://www.w3.org/2000/svg" viewBox="0 0 512 512" role="img" aria-label="Portfolio icon">
  <defs>
    <style>
      .bg   { fill: #222222; }
      .card { fill: #f8fafc; }
      .bar  { fill: #222222; }
      .muted{ fill: #222222; }
      .btn  { fill: #3FAEFF; }
      .btn2 { fill: #1875D2; }
      .dot  { fill: #0f172a; }
    </style>
    <filter id="shadow" x="-20%" y="-20%" width="140%" height="140%">
      <feDropShadow dx="0" dy="10" stdDeviation="14" flood-color="#000" flood-opacity="0.35"/>
    </filter>
  </defs>

  <!-- Background -->
  <rect x="24" y="24" width="464" height="464" rx="96" class="bg"/>

  <!-- Card -->
  <g filter="url(#shadow)">
    <rect x="96" y="88" width="320" height="336" rx="28" class="card"/>
  </g>

  <!-- Title bars -->
  <rect x="128" y="128" width="256" height="28" rx="12" class="bar"/>
  <rect x="128" y="164" width="220" height="28" rx="12" class="bar"/>

  <!-- Subtitle -->
  <rect x="128" y="206" width="210" height="18" rx="9" class="bar"/>

  <!-- Icon row -->
  <g transform="translate(128,245)">
    <circle cx="0"   cy="0" r="12" class="dot"/>
    <circle cx="34"  cy="0" r="12" class="dot"/>
    <circle cx="68"  cy="0" r="12" class="dot"/>
  </g>

  <!-- Paragraph bars -->
  <rect x="128" y="272" width="256" height="10" rx="5" class="muted"/>
  <rect x="128" y="290" width="236" height="10" rx="5" class="muted"/>

  <!-- CV button -->
  <rect x="196" y="322" width="120" height="52" rx="26" class="btn2" opacity="0.25"/>
  <rect x="192" y="316" width="120" height="52" rx="26" class="btn"/>

  <!-- “CV” (vector) — 48px de haut, centré verticalement dans le bouton de 52px -->
  <g fill="#0f172a" transform="translate(208,318)" class="CV">
    <!-- C -->
    <path d="M24 0c-13.2 0-24 10.8-24 24s10.8 24 24 24c6.3 0 12.1-2.5 16.4-6.5l-5.7-6.2c-2.9 2.7-6.6 4.2-10.7 4.2-8.7 0-15.8-7.1-15.8-15.8S15.3 7.9 24 7.9c4.1 0 7.8 1.6 10.7 4.2l5.7-6.2C36.1 2.5 30.3 0 24 0z"/>
    <!-- V (vrai V, 48px de haut) -->
    <!-- Largeur ~32px, jambages à 64 et 96, pointe en (80,48),
         épaisseur des jambages ~8px -->
    <path d="M59 0 L80 47 L100 0 H92 L80 26 L68 0 Z" transform="translate(-13,0)"/>

  </g>
</svg>
